{
    "asset" : {
        "generator" : "Khronos glTF Blender I/O v1.4.40",
        "version" : "2.0"
    },
    "scene" : 0,
    "scenes" : [
        {
            "name" : "Scene",
            "nodes" : [
                0
            ]
        }
    ],
    "nodes" : [
        {
            "mesh" : 0,
            "name" : "Tree Type3 04"
        }
    ],
    "materials" : [
        {
            "doubleSided" : true,
            "name" : "Treepack",
            "pbrMetallicRoughness" : {}
        }
    ],
    "meshes" : [
        {
            "name" : "Circle.335",
            "primitives" : [
                {
                    "attributes" : {
                        "POSITION" : 0,
                        "NORMAL" : 1,
                        "TEXCOORD_0" : 2
                    },
                    "indices" : 3,
                    "material" : 0
                }
            ]
        }
    ],
    "accessors" : [
        {
            "bufferView" : 0,
            "componentType" : 5126,
            "count" : 1230,
            "max" : [
                1.6575082540512085,
                5.960533142089844,
                1.0495083332061768
            ],
            "min" : [
                -1.8098217248916626,
                -1.1817702372241001e-08,
                -1.1886353492736816
            ],
            "type" : "VEC3"
        },
        {
            "bufferView" : 1,
            "componentType" : 5126,
            "count" : 1230,
            "type" : "VEC3"
        },
        {
            "bufferView" : 2,
            "componentType" : 5126,
            "count" : 1230,
            "type" : "VEC2"
        },
        {
            "bufferView" : 3,
            "componentType" : 5123,
            "count" : 1356,
            "type" : "SCALAR"
        }
    ],
    "bufferViews" : [
        {
            "buffer" : 0,
            "byteLength" : 14760,
            "byteOffset" : 0
        },
        {
            "buffer" : 0,
            "byteLength" : 14760,
            "byteOffset" : 14760
        },
        {
            "buffer" : 0,
            "byteLength" : 9840,
            "byteOffset" : 29520
        },
        {
            "buffer" : 0,
            "byteLength" : 2712,
            "byteOffset" : 39360
        }
    ],
    "buffers" : [
        {
            "byteLength" : 42072,
            "uri" : "Tree1.bin"
        }
    ]
}
